<?xml version="1.0"?>
<svg xmlns="http://www.w3.org/2000/svg" xmlns:xlink="http://www.w3.org/1999/xlink" xmlns:svgjs="http://svgjs.com/svgjs" version="1.1" width="512" height="512" x="0" y="0" viewBox="0 0 512 512" style="enable-background:new 0 0 512 512" xml:space="preserve" class=""><g>
<g xmlns="http://www.w3.org/2000/svg">
	<g>
		<path d="M256,133.094c-26.9,0-48.786,21.885-48.786,48.786c0,26.9,21.885,48.786,48.786,48.786s48.786-21.885,48.786-48.786    C304.786,154.979,282.9,133.094,256,133.094z" fill="#626ed4" data-original="#000000" style="" class=""/>
	</g>
</g>
<g xmlns="http://www.w3.org/2000/svg">
	<g>
		<path d="M110.961,0C91.649,0,75.936,15.713,75.936,35.025v330.958c10.118-6.497,22.134-10.283,35.025-10.283h325.102V0H110.961z     M356.03,196.879h-22.694c-2.051,10.592-6.214,20.438-12.057,29.066l16.06,16.06l-21.213,21.213l-16.06-16.06    c-8.628,5.843-18.475,10.007-29.066,12.057v22.695H241v-22.695c-10.592-2.051-20.439-6.214-29.066-12.057l-16.06,16.06    l-21.212-21.213l16.06-16.06c-5.843-8.628-10.007-18.475-12.057-29.066H155.97V166.88h22.694    c2.051-10.592,6.214-20.438,12.057-29.066l-16.06-16.06l21.212-21.213l16.06,16.06c8.628-5.843,18.475-10.007,29.066-12.057V81.85    H271v22.694c10.592,2.051,20.439,6.214,29.066,12.057l16.06-16.06l21.213,21.213l-16.06,16.06    c5.843,8.628,10.007,18.475,12.057,29.066h22.694V196.879z" fill="#626ed4" data-original="#000000" style="" class=""/>
	</g>
</g>
<g xmlns="http://www.w3.org/2000/svg">
	<g>
		<path d="M110.961,385.7c-19.313,0-35.025,15.712-35.025,35.025s15.713,35.025,35.025,35.025h29.989V422.4h118.932v33.35h176.181    V385.7H110.961z" fill="#626ed4" data-original="#000000" style="" class=""/>
	</g>
</g>
<g xmlns="http://www.w3.org/2000/svg">
	<g>
		<polygon points="170.95,452.399 170.95,512 200.416,498.739 229.884,512 229.884,452.399   " fill="#626ed4" data-original="#000000" style="" class=""/>
	</g>
</g>
<g xmlns="http://www.w3.org/2000/svg">
</g>
<g xmlns="http://www.w3.org/2000/svg">
</g>
<g xmlns="http://www.w3.org/2000/svg">
</g>
<g xmlns="http://www.w3.org/2000/svg">
</g>
<g xmlns="http://www.w3.org/2000/svg">
</g>
<g xmlns="http://www.w3.org/2000/svg">
</g>
<g xmlns="http://www.w3.org/2000/svg">
</g>
<g xmlns="http://www.w3.org/2000/svg">
</g>
<g xmlns="http://www.w3.org/2000/svg">
</g>
<g xmlns="http://www.w3.org/2000/svg">
</g>
<g xmlns="http://www.w3.org/2000/svg">
</g>
<g xmlns="http://www.w3.org/2000/svg">
</g>
<g xmlns="http://www.w3.org/2000/svg">
</g>
<g xmlns="http://www.w3.org/2000/svg">
</g>
<g xmlns="http://www.w3.org/2000/svg">
</g>
</g></svg>
