<?xml version="1.0"?>
<svg xmlns="http://www.w3.org/2000/svg" xmlns:xlink="http://www.w3.org/1999/xlink" xmlns:svgjs="http://svgjs.com/svgjs" version="1.1" width="512" height="512" x="0" y="0" viewBox="0 0 24 24" style="enable-background:new 0 0 512 512" xml:space="preserve" class=""><g><g xmlns="http://www.w3.org/2000/svg"><ellipse cx="12" cy="3" rx="12" ry="3" fill="#626ed4" data-original="#000000" style="" class=""/><path d="m12 8c-6.627 0-12-1.343-12-3v4c0 1.657 5.373 3 12 3s12-1.343 12-3v-4c0 1.657-5.373 3-12 3z" fill="#626ed4" data-original="#000000" style="" class=""/><path d="m12 14c-6.627 0-12-1.343-12-3v4c0 1.657 5.373 3 12 3s12-1.343 12-3v-4c0 1.657-5.373 3-12 3z" fill="#626ed4" data-original="#000000" style="" class=""/><path d="m12 20c-6.627 0-12-1.343-12-3v4c0 1.657 5.373 3 12 3s12-1.343 12-3v-4c0 1.657-5.373 3-12 3z" fill="#626ed4" data-original="#000000" style="" class=""/></g></g></svg>
